# xmcd
#
# Track frame offsets: 
#        150
#        14895
#        29711
#        44728
#        59857
#        77273
#        97151
#        116858
#
# Disc length: 1845 seconds
#
# Revision: 0
# Processed by: cddbd v1.5.2PL0 Copyright (c) Steve Scherf et al.
# Submitted via: ExactAudioCopy v1.0b3
#
DISCID=7a073308
DTITLE=Sinan Vllasaliu - Remza
DYEAR=2014
DGENRE=Pop/Funk
TTITLE0=Sherohet Kjo Dashni
TTITLE1=Degjo Zemren
TTITLE2=Doren Ne Zjarr
TTITLE3=Si E Ke Zemren Ta Dhasht Zoti
TTITLE4=Lemza
TTITLE5=Shkaktar
TTITLE6=Nje Puthje
TTITLE7=Dy Buze me jan Thare
EXTD=
EXTT0=
EXTT1=
EXTT2=
EXTT3=
EXTT4=
EXTT5=
EXTT6=
EXTT7=
PLAYORDER=
